<svg xmlns="http://www.w3.org/2000/svg" width="32" height="32" viewBox="0 0 32 32" fill="none">
<path d="M13.8281 8C12.2135 8 10.6823 8.30208 9.23438 8.90625C7.78646 9.51042 6.48958 10.3802 5.34375 11.5156C4.20833 12.651 3.33854 13.9427 2.73438 15.3906C2.13021 16.8385 1.82812 18.375 1.82812 20C1.82812 21.1042 1.96875 22.1667 2.25 23.1875C2.53125 24.2083 2.9375 25.1615 3.46875 26.0469C4 26.9323 4.625 27.7448 5.34375 28.4844C6.0625 29.224 6.86979 29.849 7.76562 30.3594C8.66146 30.8698 9.61979 31.2708 10.6406 31.5625C11.6615 31.8542 12.724 32 13.8281 32H27.8281V30H13.8281C12.9115 30 12.026 29.8802 11.1719 29.6406C10.3177 29.401 9.52083 29.0677 8.78125 28.6406C8.04167 28.2135 7.36979 27.6927 6.76562 27.0781C6.16146 26.4635 5.64062 25.7865 5.20312 25.0469C4.76562 24.3073 4.42708 23.5104 4.1875 22.6562C3.94792 21.8021 3.82812 20.9167 3.82812 20C3.82812 19.0833 3.94792 18.1979 4.1875 17.3438C4.42708 16.4896 4.76042 15.6927 5.1875 14.9531C5.61458 14.2135 6.13542 13.5417 6.75 12.9375C7.36458 12.3333 8.04167 11.8125 8.78125 11.375C9.52083 10.9375 10.3177 10.599 11.1719 10.3594C12.026 10.1198 12.9115 10 13.8281 10H26.6562L20 16.6719L21.1562 17.8281L30 9L21.1562 0.171875L20 1.32812L26.6562 8H13.8281Z" fill="#1B998B"/>
</svg>