<svg width="40" height="32" viewBox="0 0 40 32" fill="none" xmlns="http://www.w3.org/2000/svg">
<rect width="40" height="32" rx="8" fill="#1B998B"/>
<path d="M18.1783 16.8997C17.983 16.8997 17.7957 16.9945 17.6576 17.1633C17.5195 17.332 17.4419 17.561 17.4419 17.7997C17.4419 18.0384 17.5195 18.2673 17.6576 18.4361C17.7957 18.6048 17.983 18.6997 18.1783 18.6997H22.1055C22.3008 18.6997 22.4881 18.6048 22.6262 18.4361C22.7643 18.2673 22.8419 18.0384 22.8419 17.7997C22.8419 17.561 22.7643 17.332 22.6262 17.1633C22.4881 16.9945 22.3008 16.8997 22.1055 16.8997H18.1783Z" fill="white"/>
<path fill-rule="evenodd" clip-rule="evenodd" d="M22.4214 7.07308C22.5829 6.99101 22.7699 6.97748 22.9413 7.03546C23.1127 7.09345 23.2544 7.21822 23.3352 7.38233L24.9822 10.7295C25.371 10.7499 25.7244 10.7803 26.0451 10.8274C27.0043 10.9668 27.7983 11.2677 28.3624 11.9767C28.9265 12.6866 29.0501 13.5377 28.9838 14.5199C28.9202 15.4716 28.6658 16.6726 28.3497 18.1726L27.94 20.1176C27.7265 21.1303 27.553 21.9509 27.335 22.5916C27.1079 23.2608 26.8081 23.8101 26.2976 24.2301C25.7871 24.6501 25.1948 24.832 24.5044 24.9178C23.8412 25 23.0146 25 21.9972 25H18.0038C16.9845 25 16.1588 25 15.4956 24.9178C14.8052 24.832 14.2129 24.6501 13.7024 24.2301C13.191 23.8101 12.8921 23.2608 12.665 22.5925C12.447 21.9509 12.2744 21.1303 12.06 20.1186L11.6503 18.1736C11.3342 16.6726 11.0807 15.4716 11.0162 14.5199C10.9499 13.5377 11.0735 12.6866 11.6376 11.9767C12.2008 11.2677 12.9948 10.9668 13.954 10.8274C14.2747 10.7812 14.629 10.7499 15.0169 10.7295L16.6666 7.38233C16.7481 7.21952 16.8897 7.09606 17.0604 7.03886C17.2312 6.98166 17.4172 6.99535 17.5781 7.07696C17.7389 7.15856 17.8615 7.30146 17.9191 7.47451C17.9767 7.64756 17.9647 7.83674 17.8857 8.00082L16.5594 10.6935C16.89 10.6917 17.238 10.6917 17.6031 10.6917H22.3978C22.7629 10.6917 23.1109 10.6917 23.4415 10.6935L22.1162 8.00082C22.0354 7.83665 22.0221 7.64661 22.0791 7.47247C22.1362 7.29833 22.259 7.15434 22.4205 7.07216L22.4214 7.07308ZM14.3065 12.1761L13.9404 12.9201C13.8996 13.0015 13.8751 13.0904 13.8683 13.1815C13.8614 13.2726 13.8724 13.3642 13.9005 13.4509C13.9287 13.5377 13.9735 13.618 14.0323 13.6871C14.0911 13.7562 14.1628 13.8128 14.2433 13.8536C14.3237 13.8944 14.4113 13.9186 14.501 13.9249C14.5907 13.9311 14.6808 13.9193 14.7659 13.89C14.8511 13.8607 14.9297 13.8146 14.9973 13.7543C15.0648 13.694 15.12 13.6207 15.1595 13.5386L15.8744 12.0856C16.3922 12.0764 16.9827 12.0755 17.6586 12.0755H22.3423C23.0182 12.0755 23.6087 12.0754 24.1265 12.0847L24.8414 13.5386C24.923 13.7014 25.0645 13.8249 25.2353 13.8821C25.406 13.9393 25.5921 13.9256 25.7529 13.844C25.9138 13.7624 26.0363 13.6195 26.094 13.4464C26.1516 13.2734 26.1395 13.0842 26.0605 12.9201L25.6944 12.1761L25.8525 12.1973C26.6555 12.3145 27.0489 12.5278 27.3032 12.8463C27.553 13.1601 27.6757 13.5875 27.6266 14.3832H12.3743C12.3253 13.5875 12.4479 13.1601 12.6977 12.8463C12.9521 12.5278 13.3454 12.3145 14.1484 12.1973L14.3065 12.1761ZM12.9948 17.9382C12.8386 17.2173 12.6929 16.4941 12.5578 15.7688H27.4431C27.3075 16.4941 27.1615 17.2172 27.0052 17.9382L26.6164 19.7844C26.3912 20.8506 26.2349 21.5882 26.0469 22.1402C25.8652 22.6756 25.6799 22.9581 25.441 23.1538C25.203 23.3495 24.8914 23.475 24.34 23.5433C23.7686 23.6144 23.0255 23.6153 21.9526 23.6153H18.0474C16.9754 23.6153 16.2323 23.6144 15.661 23.5433C15.1086 23.475 14.798 23.3495 14.56 23.1538C14.321 22.9581 14.1348 22.6747 13.954 22.1402C13.766 21.5882 13.6088 20.8506 13.3845 19.7844L12.9948 17.9382Z" fill="white"/>
</svg>
