<svg xmlns="http://www.w3.org/2000/svg" width="13" height="12" viewBox="0 0 13 12" fill="none">
<path d="M5.32599 6.59973C5.20013 6.59973 5.07943 6.66295 4.99043 6.77547C4.90144 6.88799 4.85144 7.0406 4.85144 7.19973C4.85144 7.35886 4.90144 7.51147 4.99043 7.624C5.07943 7.73652 5.20013 7.79973 5.32599 7.79973H7.8569C7.98275 7.79973 8.10345 7.73652 8.19245 7.624C8.28144 7.51147 8.33144 7.35886 8.33144 7.19973C8.33144 7.0406 8.28144 6.88799 8.19245 6.77547C8.10345 6.66295 7.98275 6.59973 7.8569 6.59973H5.32599Z" fill="white"/>
<path fill-rule="evenodd" clip-rule="evenodd" d="M8.06044 0.0487222C8.16455 -0.00599572 8.28507 -0.0150166 8.39551 0.0236425C8.50594 0.0623016 8.59726 0.145477 8.64938 0.254885L9.71075 2.48636C9.96131 2.4999 10.189 2.52021 10.3957 2.5516C11.0139 2.64452 11.5256 2.84515 11.8891 3.31778C12.2527 3.79104 12.3323 4.35844 12.2895 5.01324C12.2486 5.64773 12.0846 6.44838 11.8809 7.44842L11.6169 8.74509C11.4793 9.4202 11.3675 9.9673 11.227 10.3944C11.0806 10.8406 10.8875 11.2067 10.5584 11.4867C10.2294 11.7668 9.84774 11.888 9.40282 11.9452C8.97546 12 8.44272 12 7.78705 12H5.21353C4.55668 12 4.02453 12 3.59718 11.9452C3.15225 11.888 2.77056 11.7668 2.44155 11.4867C2.11196 11.2067 1.91935 10.8406 1.773 10.395C1.63249 9.9673 1.52126 9.4202 1.3831 8.74571L1.11908 7.44904C0.915351 6.44838 0.752018 5.64773 0.710453 5.01324C0.667717 4.35844 0.747335 3.79104 1.11088 3.31778C1.47385 2.84515 1.9855 2.64452 2.60371 2.5516C2.81037 2.52083 3.03868 2.4999 3.28866 2.48636L4.35179 0.254885C4.40434 0.146345 4.49558 0.0640408 4.60561 0.0259075C4.71564 -0.0122258 4.83555 -0.0030969 4.9392 0.0513048C5.04286 0.105707 5.12186 0.200971 5.15899 0.316339C5.19612 0.431706 5.18837 0.557825 5.13742 0.66721L4.28271 2.46236C4.4958 2.46113 4.72002 2.46113 4.95536 2.46113H8.04522C8.28056 2.46113 8.50478 2.46113 8.71787 2.46236L7.86374 0.66721C7.81169 0.557766 7.80311 0.431073 7.83988 0.314981C7.87666 0.198888 7.95578 0.102897 8.05986 0.0481068L8.06044 0.0487222ZM2.83086 3.45071L2.59493 3.94673C2.56865 4.00102 2.55284 4.06024 2.54843 4.12098C2.54402 4.18172 2.55109 4.24277 2.56923 4.30062C2.58738 4.35848 2.61623 4.41198 2.65414 4.45805C2.69205 4.50412 2.73826 4.54185 2.7901 4.56906C2.84195 4.59627 2.8984 4.61242 2.95621 4.61659C3.01402 4.62075 3.07205 4.61284 3.12694 4.59332C3.18183 4.5738 3.2325 4.54305 3.27603 4.50284C3.31956 4.46264 3.35509 4.41377 3.38057 4.35906L3.8413 3.3904C4.17499 3.38425 4.55551 3.38363 4.99107 3.38363H8.00951C8.44507 3.38363 8.82559 3.38363 9.15928 3.38979L9.62001 4.35906C9.67257 4.4676 9.7638 4.5499 9.87383 4.58804C9.98386 4.62617 10.1038 4.61704 10.2074 4.56264C10.3111 4.50824 10.3901 4.41297 10.4272 4.29761C10.4643 4.18224 10.4566 4.05612 10.4056 3.94673L10.1697 3.45071L10.2716 3.46487C10.7891 3.54302 11.0426 3.68518 11.2065 3.8975C11.3675 4.10674 11.4465 4.39168 11.4149 4.92216H1.58566C1.55405 4.39168 1.63308 4.10674 1.79407 3.8975C1.95799 3.68518 2.21148 3.54302 2.72899 3.46487L2.83086 3.45071ZM1.98551 7.29211C1.88487 6.81152 1.79099 6.3294 1.70392 5.84589H11.2967C11.2092 6.32937 11.1152 6.81149 11.0145 7.29211L10.7639 8.52293C10.6187 9.23373 10.5181 9.72544 10.3969 10.0935C10.2798 10.4504 10.1604 10.6387 10.0064 10.7692C9.85301 10.8996 9.65221 10.9833 9.29686 11.0289C8.92863 11.0763 8.44975 11.0769 7.75836 11.0769H5.24163C4.55083 11.0769 4.07195 11.0763 3.70372 11.0289C3.34779 10.9833 3.14757 10.8996 2.99419 10.7692C2.84022 10.6387 2.72021 10.4498 2.60371 10.0935C2.48253 9.72544 2.38125 9.23373 2.23665 8.52293L1.98551 7.29211Z" fill="white"/>
</svg>
