<svg xmlns="http://www.w3.org/2000/svg" width="24" height="24" viewBox="0 0 24 24" fill="none">
<path fill-rule="evenodd" clip-rule="evenodd" d="M11 19V22H13V19H14C15.0609 19 16.0783 18.5786 16.8284 17.8284C17.5786 17.0783 18 16.0609 18 15C18 13.9391 17.5786 12.9217 16.8284 12.1716C16.0783 11.4214 15.0609 11 14 11H13V7H15V9H17V5H13V2H11V5H10C8.93913 5 7.92172 5.42143 7.17157 6.17157C6.42143 6.92172 6 7.93913 6 9C6 10.0609 6.42143 11.0783 7.17157 11.8284C7.92172 12.5786 8.93913 13 10 13H11V17H9V15H7V19H11ZM13 17H14C14.5304 17 15.0391 16.7893 15.4142 16.4142C15.7893 16.0391 16 15.5304 16 15C16 14.4696 15.7893 13.9609 15.4142 13.5858C15.0391 13.2107 14.5304 13 14 13H13V17ZM11 11V7H10C9.46957 7 8.96086 7.21071 8.58579 7.58579C8.21071 7.96086 8 8.46957 8 9C8 9.53043 8.21071 10.0391 8.58579 10.4142C8.96086 10.7893 9.46957 11 10 11H11Z" fill="#333333"/>
</svg>