<svg xmlns="http://www.w3.org/2000/svg" width="14" height="17" viewBox="0 0 14 17" fill="none">
  <path fill-rule="evenodd" clip-rule="evenodd" d="M4.75 3.5V2H9.25V3.5H4.75ZM3.25 3.5V1.5C3.25 1.23478 3.35536 0.98043 3.54289 0.792893C3.73043 0.605357 3.98478 0.5 4.25 0.5H9.75C10.0152 0.5 10.2696 0.605357 10.4571 0.792893C10.6446 0.98043 10.75 1.23478 10.75 1.5V3.5H13.25C13.4489 3.5 13.6397 3.57902 13.7803 3.71967C13.921 3.86032 14 4.05109 14 4.25C14 4.44891 13.921 4.63968 13.7803 4.78033C13.6397 4.92098 13.4489 5 13.25 5H12.885L12.142 14.653C12.1034 15.1554 11.8767 15.6248 11.507 15.9673C11.1373 16.3097 10.6519 16.5 10.148 16.5H3.852C3.34808 16.5 2.86274 16.3097 2.49304 15.9673C2.12335 15.6248 1.89655 15.1554 1.858 14.653L1.115 5H0.75C0.551088 5 0.360322 4.92098 0.21967 4.78033C0.0790177 4.63968 0 4.44891 0 4.25C0 4.05109 0.0790177 3.86032 0.21967 3.71967C0.360322 3.57902 0.551088 3.5 0.75 3.5H3.25ZM2.62 5H11.38L10.646 14.538C10.6364 14.6636 10.5798 14.7809 10.4875 14.8666C10.3952 14.9522 10.2739 14.9999 10.148 15H3.852C3.72607 14.9999 3.60482 14.9522 3.5125 14.8666C3.42017 14.7809 3.36357 14.6636 3.354 14.538L2.62 5Z" fill="#84848D"/>
</svg>