<svg xmlns="http://www.w3.org/2000/svg" width="24" height="24" viewBox="0 0 24 24" fill="none">
<path fill-rule="evenodd" clip-rule="evenodd" d="M3.2 12C3.20016 10.3065 3.68896 8.64901 4.60777 7.22642C5.52657 5.80383 6.83634 4.67658 8.37991 3.97991C9.92348 3.28325 11.6353 3.04677 13.3099 3.29886C14.9846 3.55095 16.5509 4.28089 17.821 5.40109C19.091 6.5213 20.0109 7.98419 20.4702 9.61422C20.9295 11.2443 20.9087 12.9722 20.4103 14.5907C19.9119 16.2092 18.957 17.6495 17.6604 18.7388C16.3637 19.8281 14.7802 20.5201 13.1 20.7318V14.2H15.3C15.5917 14.2 15.8715 14.0841 16.0778 13.8778C16.2841 13.6715 16.4 13.3917 16.4 13.1C16.4 12.8083 16.2841 12.5285 16.0778 12.3222C15.8715 12.1159 15.5917 12 15.3 12H13.1V9.8C13.1 9.50826 13.2159 9.22847 13.4222 9.02218C13.6285 8.81589 13.9083 8.7 14.2 8.7H14.75C15.0417 8.7 15.3215 8.58411 15.5278 8.37782C15.7341 8.17153 15.85 7.89174 15.85 7.6C15.85 7.30826 15.7341 7.02847 15.5278 6.82218C15.3215 6.61589 15.0417 6.5 14.75 6.5H14.2C13.3248 6.5 12.4854 6.84768 11.8665 7.46655C11.2477 8.08542 10.9 8.92479 10.9 9.8V12H8.7C8.40826 12 8.12847 12.1159 7.92218 12.3222C7.71589 12.5285 7.6 12.8083 7.6 13.1C7.6 13.3917 7.71589 13.6715 7.92218 13.8778C8.12847 14.0841 8.40826 14.2 8.7 14.2H10.9V20.7318C8.77337 20.4636 6.8177 19.4286 5.4 17.8209C3.98231 16.2133 3.20004 14.1435 3.2 12ZM12 23C18.0753 23 23 18.0753 23 12C23 5.9247 18.0753 1 12 1C5.9247 1 1 5.9247 1 12C1 18.0753 5.9247 23 12 23Z" fill="#535456"/>
</svg>