<svg xmlns="http://www.w3.org/2000/svg" width="17" height="16" viewBox="0 0 17 16" fill="none">
<path d="M4.59502 2.86202C4.72004 2.73704 4.88958 2.66683 5.06635 2.66683C5.24313 2.66683 5.41267 2.73704 5.53769 2.86202L8.20435 5.52869C8.32579 5.65442 8.39299 5.82282 8.39147 5.99762C8.38995 6.17242 8.31984 6.33963 8.19623 6.46323C8.07263 6.58684 7.90542 6.65695 7.73062 6.65847C7.55582 6.65999 7.38742 6.59279 7.26169 6.47135L5.73302 4.94269V12.6667C5.73302 12.8435 5.66278 13.0131 5.53776 13.1381C5.41273 13.2631 5.24316 13.3334 5.06635 13.3334C4.88954 13.3334 4.71997 13.2631 4.59495 13.1381C4.46992 13.0131 4.39969 12.8435 4.39969 12.6667V4.94269L2.87102 6.47135C2.74528 6.59279 2.57688 6.65999 2.40208 6.65847C2.22729 6.65695 2.06008 6.58684 1.93647 6.46323C1.81287 6.33963 1.74276 6.17242 1.74124 5.99762C1.73972 5.82282 1.80691 5.65442 1.92835 5.52869L4.59502 2.86202ZM11.0664 11.0574V3.33335C11.0664 3.15654 11.1366 2.98697 11.2616 2.86195C11.3866 2.73693 11.5562 2.66669 11.733 2.66669C11.9098 2.66669 12.0794 2.73693 12.2044 2.86195C12.3294 2.98697 12.3997 3.15654 12.3997 3.33335V11.0574L13.9284 9.52869C14.0541 9.40725 14.2225 9.34005 14.3973 9.34157C14.5721 9.34309 14.7393 9.4132 14.8629 9.53681C14.9865 9.66041 15.0566 9.82762 15.0581 10.0024C15.0597 10.1772 14.9925 10.3456 14.871 10.4714L12.2044 13.138C12.0793 13.263 11.9098 13.3332 11.733 13.3332C11.5562 13.3332 11.3867 13.263 11.2617 13.138L8.59502 10.4714C8.47358 10.3456 8.40638 10.1772 8.4079 10.0024C8.40942 9.82762 8.47953 9.66041 8.60314 9.53681C8.72674 9.4132 8.89395 9.34309 9.06875 9.34157C9.24355 9.34005 9.41195 9.40725 9.53768 9.52869L11.0664 11.0574Z" fill="#1B998B"/>
</svg>