<svg xmlns="http://www.w3.org/2000/svg" width="24" height="24" viewBox="0 0 24 24" fill="none">
<path d="M14.59 11.1111H18V9.33333H16.32C16.74 8.74667 17 8.16 17 7.55556C17 5.21778 14.5 4 12 4C9.65 4 7.53 5.83111 7.29 6.03556L8.71 7.29778C9.19 6.87111 10.71 5.77778 12 5.77778C13.04 5.77778 15 6.15111 15 7.55556C15 8 14.5 8.65778 13.76 9.33333H6V11.1111H11.63C11.21 11.4311 9.75 12.5956 9.41 12.8889H6V14.6667H7.68C7.26 15.2533 7 15.84 7 16.4444C7 18.7822 9.5 20 12 20C14.35 20 16.47 18.1689 16.71 17.9644L15.29 16.7022C14.82 17.1289 13.29 18.2222 12 18.2222C10.96 18.2222 9 17.8489 9 16.4444C9 16 9.5 15.3422 10.24 14.6667H18V12.8889H12.38L14.59 11.1111Z" fill="#333333"/>
</svg>