<svg xmlns="http://www.w3.org/2000/svg" width="24" height="24" viewBox="0 0 24 24" fill="none">
<g clip-path="url(#clip0_25_1214)">
<path d="M12 23C18.075 23 23 18.075 23 12C23 5.925 18.075 1 12 1M12 23C5.925 23 1 18.075 1 12C1 5.925 5.925 1 12 1M12 23C15 23 16 18 16 12C16 6 15 1 12 1M12 23C9 23 8 18 8 12C8 6 9 1 12 1M2 16H22M2 8H22" stroke="#333333" stroke-width="2"/>
</g>
<defs>
<clipPath id="clip0_25_1214">
<path d="M0 12C0 5.37258 5.37258 0 12 0C18.6274 0 24 5.37258 24 12V24H0V12Z" fill="white"/>
</clipPath>
</defs>
</svg>