<svg xmlns="http://www.w3.org/2000/svg" width="19" height="23" viewBox="0 0 19 23" fill="none">
<path d="M9.5 12.5C11.1569 12.5 12.5 11.1569 12.5 9.5C12.5 7.84315 11.1569 6.5 9.5 6.5C7.84315 6.5 6.5 7.84315 6.5 9.5C6.5 11.1569 7.84315 12.5 9.5 12.5Z" stroke="#EBEBEB" stroke-width="1.5" stroke-linecap="round" stroke-linejoin="round"/>
<path d="M9.5 1.5C7.37827 1.5 5.34344 2.34285 3.84315 3.84315C2.34285 5.34344 1.5 7.37827 1.5 9.5C1.5 11.392 1.902 12.63 3 14L9.5 21.5L16 14C17.098 12.63 17.5 11.392 17.5 9.5C17.5 7.37827 16.6571 5.34344 15.1569 3.84315C13.6566 2.34285 11.6217 1.5 9.5 1.5Z" stroke="#EBEBEB" stroke-width="1.5" stroke-linecap="round" stroke-linejoin="round"/>
</svg>