<svg xmlns="http://www.w3.org/2000/svg" width="18" height="18" viewBox="0 0 18 18" fill="none">
<path d="M2.10425 2H8.10425C8.65425 2 9.10425 1.55 9.10425 1C9.10425 0.45 8.65425 0 8.10425 0H2.10425C1.00425 0 0.104248 0.9 0.104248 2V16C0.104248 17.1 1.00425 18 2.10425 18H8.10425C8.65425 18 9.10425 17.55 9.10425 17C9.10425 16.45 8.65425 16 8.10425 16H2.10425V2Z" fill="#535456"/>
<path d="M17.7542 8.65004L14.9642 5.86004C14.8947 5.78859 14.8054 5.73952 14.7078 5.71911C14.6102 5.69869 14.5087 5.70787 14.4164 5.74545C14.324 5.78304 14.245 5.84733 14.1894 5.93009C14.1338 6.01286 14.1041 6.11033 14.1042 6.21004V8.00004H7.10425C6.55425 8.00004 6.10425 8.45004 6.10425 9.00004C6.10425 9.55004 6.55425 10 7.10425 10H14.1042V11.79C14.1042 12.24 14.6442 12.46 14.9542 12.14L17.7442 9.35004C17.9442 9.16004 17.9442 8.84004 17.7542 8.65004Z" fill="#535456"/>
</svg>