<svg xmlns="http://www.w3.org/2000/svg" width="24" height="24" viewBox="0 0 24 24" fill="none">
<path d="M5.1 5.1H11C11.6052 5.1 12.1 4.60523 12.1 4C12.1 3.39477 11.6052 2.9 11 2.9H5C3.84477 2.9 2.9 3.84477 2.9 5V19C2.9 20.1552 3.84477 21.1 5 21.1H11C11.6052 21.1 12.1 20.6052 12.1 20C12.1 19.3948 11.6052 18.9 11 18.9H5.1V5.1Z" fill="#535456" stroke="#535456" stroke-width="0.2"/>
<path d="M17.9317 8.79029L20.7207 11.5793C20.9498 11.8084 20.9501 12.1924 20.7098 12.4216L17.9218 15.2096C17.9216 15.2098 17.9214 15.21 17.9212 15.2102C17.5475 15.595 16.9 15.3281 16.9 14.79V13.1H10C9.39477 13.1 8.9 12.6053 8.9 12C8.9 11.3948 9.39477 10.9 10 10.9H16.9V9.21015V9.21004H17L17.9317 8.79029ZM17.9317 8.79029C17.9315 8.79011 17.9313 8.78993 17.9311 8.78975L17.9317 8.79029Z" fill="#535456" stroke="#535456" stroke-width="0.2"/>
</svg>