<svg xmlns="http://www.w3.org/2000/svg" width="80" height="34" viewBox="0 0 80 34" fill="none">
<path d="M5.056 12.64C3.43467 12.64 2.18667 12.144 1.312 11.152C0.437333 10.16 0 8.75731 0 6.94397C0 5.79197 0.208 4.79997 0.624 3.96797C1.05067 3.12531 1.664 2.48531 2.464 2.04797C3.264 1.59997 4.21333 1.37597 5.312 1.37597C6.56 1.37597 7.84533 1.65864 9.168 2.22397C9.072 3.18397 8.91733 4.24531 8.704 5.40797L7.488 5.48797L6.384 3.87197C5.91467 3.73331 5.39733 3.66397 4.832 3.66397C4.40533 3.66397 4 3.70131 3.616 3.77597C3.44533 4.10664 3.30667 4.54397 3.2 5.08797C3.09333 5.63197 3.04 6.18131 3.04 6.73597C3.04 7.91997 3.25333 8.79997 3.68 9.37597C4.11733 9.94131 4.80533 10.2346 5.744 10.256C6.11733 10.256 6.58667 10.2026 7.152 10.096C7.728 9.97864 8.288 9.82931 8.832 9.64797L9.328 11.408C8.77333 11.7706 8.10133 12.0693 7.312 12.304C6.53333 12.528 5.78133 12.64 5.056 12.64Z" fill="#333333"/>
<path d="M10.0629 10.88L11.0549 10.592V2.92797C11.0549 2.69331 11.0389 2.54397 11.0069 2.47997C10.9749 2.40531 10.8895 2.32531 10.7509 2.23997L10.0469 1.87197L10.0949 0.655973L10.5909 0.575974C11.9989 0.319974 12.9855 0.181307 13.5509 0.159973C13.6469 0.415973 13.7162 0.693306 13.7589 0.991973V4.63997C14.3455 4.37331 14.8415 4.18131 15.2469 4.06397C15.6629 3.93597 16.0735 3.87197 16.4789 3.87197C18.1429 3.87197 18.9749 4.88531 18.9749 6.91197V10.064C18.9749 10.288 18.9909 10.4373 19.0229 10.512C19.0549 10.5866 19.1455 10.6666 19.2949 10.752L20.0629 11.2L19.9989 12.4H15.5829L15.5029 10.88L16.2869 10.656V7.61597C16.2869 7.14664 16.2709 6.81597 16.2389 6.62397C16.2175 6.42131 16.1322 6.26664 15.9829 6.15997C15.8335 6.05331 15.5829 5.99997 15.2309 5.99997C14.8895 5.99997 14.3989 6.05864 13.7589 6.17597V10.064C13.7589 10.288 13.7749 10.4373 13.8069 10.512C13.8389 10.5866 13.9242 10.6666 14.0629 10.752L14.8469 11.2L14.7829 12.4H10.1429L10.0629 10.88Z" fill="#333333"/>
<path d="M24.3534 12.592C23.1054 12.592 22.14 12.2133 21.4574 11.456C20.7854 10.6986 20.4494 9.65331 20.4494 8.31997C20.4494 7.39197 20.6147 6.59731 20.9454 5.93597C21.276 5.26397 21.7454 4.75197 22.3534 4.39997C22.9614 4.04797 23.6707 3.87197 24.4814 3.87197C25.6867 3.87197 26.6094 4.25597 27.2494 5.02397C27.9 5.79197 28.2094 6.88531 28.1774 8.30397L23.3134 9.19997C23.4627 9.64797 23.6707 9.97864 23.9374 10.192C24.2147 10.3946 24.5774 10.496 25.0254 10.496C25.3347 10.496 25.7027 10.4533 26.1294 10.368C26.556 10.272 26.988 10.144 27.4254 9.98397L27.7934 11.568C27.3987 11.8666 26.8867 12.112 26.2574 12.304C25.628 12.496 24.9934 12.592 24.3534 12.592ZM25.5534 6.95997C25.532 6.55464 25.4147 6.26131 25.2014 6.07997C24.9987 5.88797 24.7107 5.79197 24.3374 5.79197C24.028 5.79197 23.7347 5.83464 23.4574 5.91997C23.2334 6.44264 23.132 7.00797 23.1534 7.61597L25.5534 6.95997Z" fill="#333333"/>
<path d="M28.907 10.88L29.883 10.592V6.70397C29.883 6.46931 29.867 6.31997 29.835 6.25597C29.803 6.18131 29.7177 6.10131 29.579 6.01597L28.875 5.63197L28.923 4.43197C29.1043 4.38931 29.259 4.36264 29.387 4.35197C30.6777 4.08531 31.6323 3.94131 32.251 3.91997C32.347 4.19731 32.4377 4.54397 32.523 4.95997C33.163 4.45864 33.707 4.11197 34.155 3.91997H35.067C35.0563 4.32531 35.0297 4.76797 34.987 5.24797C34.9443 5.71731 34.891 6.09597 34.827 6.38397C34.443 6.36264 34.1603 6.35197 33.979 6.35197C33.531 6.35197 33.067 6.37864 32.587 6.43197V10.064C32.587 10.288 32.603 10.4373 32.635 10.512C32.667 10.5866 32.7523 10.6666 32.891 10.752L33.851 11.264L33.787 12.4H28.987L28.907 10.88Z" fill="#333333"/>
<path d="M36.2315 3.48797L35.6875 2.73597L35.7515 1.61597H40.3435L40.4395 3.13597L39.2875 3.43997L41.2715 9.63197L42.8555 4.70397L42.1515 2.63997L42.2155 1.61597H46.4715L46.5675 3.13597L45.5115 3.43997L47.4795 9.63197L49.3195 3.96797C49.3515 3.88264 49.3675 3.80797 49.3675 3.74397C49.3675 3.60531 49.2982 3.51464 49.1595 3.47197L48.0715 3.02397L48.1675 1.61597H52.3595L52.4395 2.97597L51.7835 3.87197L48.4235 12.464L45.6235 12.736L43.9435 7.83997L42.2155 12.464L39.2555 12.736L36.2315 3.48797Z" fill="#333333"/>
<path d="M56.1533 12.608C54.7986 12.608 53.7853 12.2613 53.1133 11.568C52.4519 10.8746 52.1213 9.81331 52.1213 8.38397C52.1213 7.46664 52.2866 6.66664 52.6172 5.98397C52.9586 5.30131 53.4439 4.77864 54.0732 4.41597C54.7026 4.05331 55.4439 3.87197 56.2972 3.87197C59.0599 3.87197 60.4412 5.30131 60.4412 8.15997C60.4412 9.55731 60.0626 10.6506 59.3053 11.44C58.5586 12.2186 57.5079 12.608 56.1533 12.608ZM56.4093 10.736C56.6226 10.736 56.8092 10.72 56.9692 10.688C57.1292 10.6453 57.2999 10.5813 57.4813 10.496C57.5452 10.2506 57.5986 9.93597 57.6413 9.55197C57.6839 9.16797 57.7052 8.79997 57.7052 8.44797C57.7052 7.58397 57.5666 6.92797 57.2892 6.47997C57.0226 6.03197 56.6226 5.80797 56.0892 5.80797C55.7372 5.80797 55.3799 5.85597 55.0173 5.95197C54.9426 6.11197 54.8839 6.37331 54.8413 6.73597C54.7986 7.08797 54.7772 7.49331 54.7772 7.95197C54.7772 8.84797 54.9159 9.53597 55.1932 10.016C55.4812 10.496 55.8866 10.736 56.4093 10.736Z" fill="#333333"/>
<path d="M65.5908 12.608C64.2361 12.608 63.2228 12.2613 62.5508 11.568C61.8894 10.8746 61.5588 9.81331 61.5588 8.38397C61.5588 7.46664 61.7241 6.66664 62.0547 5.98397C62.3961 5.30131 62.8814 4.77864 63.5107 4.41597C64.1401 4.05331 64.8814 3.87197 65.7347 3.87197C68.4974 3.87197 69.8788 5.30131 69.8788 8.15997C69.8788 9.55731 69.5001 10.6506 68.7428 11.44C67.9961 12.2186 66.9454 12.608 65.5908 12.608ZM65.8467 10.736C66.0601 10.736 66.2467 10.72 66.4068 10.688C66.5668 10.6453 66.7374 10.5813 66.9187 10.496C66.9827 10.2506 67.0361 9.93597 67.0788 9.55197C67.1214 9.16797 67.1428 8.79997 67.1428 8.44797C67.1428 7.58397 67.0041 6.92797 66.7268 6.47997C66.4601 6.03197 66.0601 5.80797 65.5267 5.80797C65.1748 5.80797 64.8174 5.85597 64.4548 5.95197C64.3801 6.11197 64.3214 6.37331 64.2787 6.73597C64.2361 7.08797 64.2148 7.49331 64.2148 7.95197C64.2148 8.84797 64.3534 9.53597 64.6308 10.016C64.9188 10.496 65.3241 10.736 65.8467 10.736Z" fill="#333333"/>
<path d="M74.2603 12.608C73.2363 12.608 72.4362 12.224 71.8603 11.456C71.2843 10.688 70.9962 9.65864 70.9962 8.36797C70.9962 6.88531 71.3856 5.76531 72.1643 5.00797C72.9536 4.25064 74.0736 3.87197 75.5243 3.87197C75.6096 3.87197 75.8869 3.88264 76.3562 3.90397V2.94397C76.3562 2.70931 76.3402 2.55464 76.3083 2.47997C76.2763 2.40531 76.1856 2.32531 76.0362 2.23997L75.3163 1.87197L75.3962 0.655973C76.4202 0.47464 77.1776 0.351973 77.6683 0.287973C78.1589 0.213306 78.5482 0.17064 78.8363 0.159973C78.9323 0.405307 79.0016 0.68264 79.0443 0.991973V10.096C79.0443 10.288 79.0602 10.4213 79.0922 10.496C79.1349 10.5706 79.2256 10.6453 79.3643 10.72L79.9723 11.088L79.9082 12.08C78.8629 12.3466 77.8389 12.5066 76.8363 12.56C76.7616 12.3573 76.6869 12.112 76.6123 11.824C75.8869 12.3466 75.1029 12.608 74.2603 12.608ZM75.1882 10.56C75.5402 10.56 75.9349 10.4426 76.3723 10.208V6.06397C76.0523 5.92531 75.6416 5.85597 75.1403 5.85597C74.7349 5.85597 74.3456 5.90931 73.9723 6.01597C73.8869 6.21864 73.8176 6.49597 73.7643 6.84797C73.7216 7.19997 73.7002 7.58931 73.7002 8.01597C73.7002 8.89064 73.8176 9.53597 74.0523 9.95197C74.2976 10.3573 74.6762 10.56 75.1882 10.56Z" fill="#333333"/>
<path d="M25.943 32.32L26.935 32.048V24.704C26.935 24.4693 26.919 24.32 26.887 24.256C26.855 24.1813 26.7643 24.1013 26.615 24.016L25.895 23.632L25.975 22.432C26.0283 22.4213 26.0817 22.4106 26.135 22.4C26.1883 22.3893 26.247 22.3786 26.311 22.368C26.8123 22.272 27.3403 22.1813 27.895 22.096C28.4603 22 28.9243 21.9413 29.287 21.92C29.383 22.144 29.447 22.4 29.479 22.688C29.8097 22.4213 30.1617 22.2186 30.535 22.08C30.919 21.9413 31.2977 21.872 31.671 21.872C32.7377 21.872 33.5537 22.2506 34.119 23.008C34.695 23.7546 34.983 24.8213 34.983 26.208C34.983 27.648 34.5883 28.752 33.799 29.52C33.0097 30.2773 31.8683 30.656 30.375 30.656C30.215 30.656 29.9643 30.6453 29.623 30.624V31.504C29.623 31.7386 29.639 31.8933 29.671 31.968C29.703 32.0426 29.7937 32.1173 29.943 32.192L30.887 32.72L30.823 33.84H26.023L25.943 32.32ZM30.791 28.672C31.2923 28.672 31.6977 28.6026 32.007 28.464C32.0923 28.1973 32.1617 27.8773 32.215 27.504C32.279 27.12 32.311 26.7626 32.311 26.432C32.311 25.6106 32.167 24.976 31.879 24.528C31.6017 24.08 31.2123 23.856 30.711 23.856C30.4017 23.856 30.039 23.9466 29.623 24.128V28.48C29.9323 28.608 30.3217 28.672 30.791 28.672Z" fill="#333333"/>
<path d="M38.1794 30.608C37.454 30.608 36.8727 30.4106 36.4354 30.016C35.998 29.6106 35.7794 29.0933 35.7794 28.464C35.7794 27.6213 36.2007 26.96 37.0434 26.48C37.8967 26 39.134 25.728 40.7554 25.664C40.7554 25.1626 40.7127 24.7946 40.6274 24.56C40.5527 24.3146 40.4087 24.1493 40.1954 24.064C39.9927 23.968 39.678 23.92 39.2514 23.92C38.814 23.92 38.5047 23.936 38.3234 23.968L37.6674 25.264L36.4834 25.184C36.302 24.3306 36.174 23.4453 36.0994 22.528C36.6967 22.3253 37.3474 22.1653 38.0514 22.048C38.766 21.9306 39.4327 21.872 40.0514 21.872C41.182 21.872 41.9927 22.096 42.4834 22.544C42.974 22.9813 43.2194 23.712 43.2194 24.736V28.08C43.2194 28.272 43.2354 28.4053 43.2674 28.48C43.31 28.5546 43.3954 28.6293 43.5234 28.704L44.1634 29.072L44.0994 30.064C42.862 30.352 41.886 30.512 41.1714 30.544C41.15 30.48 41.118 30.368 41.0754 30.208C41.0327 30.0373 40.9954 29.8773 40.9634 29.728C40.5474 29.9946 40.0887 30.208 39.5874 30.368C39.0967 30.528 38.6274 30.608 38.1794 30.608ZM39.2514 28.8C39.678 28.8 40.1954 28.656 40.8034 28.368L40.7394 27.152C40.4834 27.1306 40.3127 27.12 40.2274 27.12C39.9394 27.12 39.6034 27.152 39.2194 27.216C38.8354 27.2693 38.5314 27.3333 38.3074 27.408C38.2754 27.5466 38.2594 27.6746 38.2594 27.792C38.2594 28.112 38.3447 28.3626 38.5154 28.544C38.6967 28.7146 38.942 28.8 39.2514 28.8Z" fill="#333333"/>
<path d="M48.5409 30.608C47.3035 30.608 46.3435 30.2293 45.6609 29.472C44.9782 28.704 44.6369 27.648 44.6369 26.304C44.6369 24.9066 44.9995 23.8186 45.7249 23.04C46.4609 22.2613 47.4635 21.872 48.7329 21.872C49.6929 21.872 50.7222 22.0906 51.8209 22.528C51.7995 22.8373 51.7515 23.248 51.6769 23.76C51.6022 24.2613 51.5222 24.7253 51.4369 25.152L50.3649 25.248L49.3729 23.984C49.1062 23.9306 48.8075 23.904 48.4769 23.904C48.2102 23.904 47.9649 23.92 47.7409 23.952C47.4955 24.4213 47.3729 25.0826 47.3729 25.936C47.3729 26.8106 47.5275 27.4613 47.8369 27.888C48.1462 28.304 48.6155 28.512 49.2449 28.512C49.5435 28.512 49.9062 28.4693 50.3329 28.384C50.7595 28.288 51.1969 28.1546 51.6449 27.984L52.0289 29.584C51.6022 29.8826 51.0689 30.128 50.4289 30.32C49.7995 30.512 49.1702 30.608 48.5409 30.608Z" fill="#333333"/>
<path d="M52.6879 28.88L53.6799 28.592V20.928C53.6799 20.6933 53.6639 20.544 53.6319 20.48C53.5999 20.4053 53.5145 20.3253 53.3759 20.24L52.6719 19.872L52.7199 18.656L53.2159 18.576C54.6239 18.32 55.6105 18.1813 56.1759 18.16C56.2719 18.416 56.3412 18.6933 56.3839 18.992V25.504L58.1599 23.776C58.2132 23.7226 58.2399 23.664 58.2399 23.6C58.2399 23.5466 58.2239 23.504 58.1919 23.472L57.7439 22.912L57.9199 22.032H61.4719C61.5679 22.384 61.6319 22.7626 61.6639 23.168L59.0079 25.44L62.0959 29.696V30.4H59.2799L56.3839 26.24V28.064C56.3839 28.288 56.3999 28.4373 56.4319 28.512C56.4639 28.5866 56.5492 28.6666 56.6879 28.752L57.4719 29.2L57.4079 30.4H52.7679L52.6879 28.88Z" fill="#333333"/>
</svg>