<svg xmlns="http://www.w3.org/2000/svg" width="18" height="19" viewBox="0 0 18 19" fill="none">
<path d="M2.10449 2.5H8.10449C8.65449 2.5 9.10449 2.05 9.10449 1.5C9.10449 0.95 8.65449 0.5 8.10449 0.5H2.10449C1.00449 0.5 0.104492 1.4 0.104492 2.5V16.5C0.104492 17.6 1.00449 18.5 2.10449 18.5H8.10449C8.65449 18.5 9.10449 18.05 9.10449 17.5C9.10449 16.95 8.65449 16.5 8.10449 16.5H2.10449V2.5Z" fill="#C80014"/>
<path d="M17.7545 9.15004L14.9645 6.36004C14.8949 6.28859 14.8057 6.23952 14.7081 6.21911C14.6105 6.19869 14.509 6.20787 14.4166 6.24545C14.3243 6.28304 14.2452 6.34733 14.1896 6.43009C14.134 6.51286 14.1044 6.61033 14.1045 6.71004V8.50004H7.10449C6.55449 8.50004 6.10449 8.95004 6.10449 9.50004C6.10449 10.05 6.55449 10.5 7.10449 10.5H14.1045V12.29C14.1045 12.74 14.6445 12.96 14.9545 12.64L17.7445 9.85004C17.9445 9.66004 17.9445 9.34004 17.7545 9.15004Z" fill="#C80014"/>
</svg>