<svg xmlns="http://www.w3.org/2000/svg" width="24" height="23" viewBox="0 0 24 23" fill="none">
<path d="M8.66279 11.2125C8.28154 11.2125 7.91591 11.3639 7.64633 11.6335C7.37674 11.9031 7.22529 12.2688 7.22529 12.65C7.22529 13.0312 7.37674 13.3969 7.64633 13.6665C7.91591 13.936 8.28154 14.0875 8.66279 14.0875C8.85157 14.0875 9.0385 14.0503 9.2129 13.9781C9.38731 13.9058 9.54577 13.7999 9.67926 13.6665C9.81274 13.533 9.91863 13.3745 9.99087 13.2001C10.0631 13.0257 10.1003 12.8388 10.1003 12.65C10.1003 12.4612 10.0631 12.2743 9.99087 12.0999C9.91863 11.9255 9.81274 11.767 9.67926 11.6335C9.54577 11.5 9.38731 11.3942 9.2129 11.3219C9.0385 11.2497 8.85157 11.2125 8.66279 11.2125ZM15.5628 11.2125C15.1815 11.2125 14.8159 11.3639 14.5463 11.6335C14.2767 11.9031 14.1253 12.2688 14.1253 12.65C14.1253 13.0312 14.2767 13.3969 14.5463 13.6665C14.8159 13.936 15.1815 14.0875 15.5628 14.0875C15.944 14.0875 16.3097 13.936 16.5793 13.6665C16.8488 13.3969 17.0003 13.0312 17.0003 12.65C17.0003 12.2688 16.8488 11.9031 16.5793 11.6335C16.3097 11.3639 15.944 11.2125 15.5628 11.2125ZM12.1128 0C10.6026 0 9.10718 0.297456 7.71193 0.875385C6.31669 1.45331 5.04894 2.3004 3.98107 3.36827C1.8244 5.52494 0.612793 8.45001 0.612793 11.5C0.612793 14.55 1.8244 17.4751 3.98107 19.6317C5.04894 20.6996 6.31669 21.5467 7.71193 22.1246C9.10718 22.7025 10.6026 23 12.1128 23C15.1628 23 18.0879 21.7884 20.2445 19.6317C22.4012 17.4751 23.6128 14.55 23.6128 11.5C23.6128 9.9898 23.3153 8.49438 22.7374 7.09914C22.1595 5.7039 21.3124 4.43615 20.2445 3.36827C19.1766 2.3004 17.9089 1.45331 16.5137 0.875385C15.1184 0.297456 13.623 0 12.1128 0ZM12.1128 20.7C7.04129 20.7 2.91279 16.5715 2.91279 11.5C2.91279 11.1665 2.91279 10.833 2.97029 10.511C5.68429 9.3035 7.83479 7.084 8.96179 4.3355C10.2765 6.20124 12.118 7.63231 14.2507 8.44561C16.3833 9.25892 18.7101 9.41748 20.9333 8.901C21.1748 9.7175 21.3128 10.5915 21.3128 11.5C21.3128 16.5715 17.1843 20.7 12.1128 20.7Z" fill="#535456"/>
</svg>