<svg xmlns="http://www.w3.org/2000/svg" width="40" height="40" viewBox="0 0 40 40" fill="none">
<path d="M28.1727 33.2601L33.3327 30.0423L28.1727 26.8262V33.2601ZM11.281 14.4999H28.7177V12.8439H11.281V14.4999ZM29.9993 36.6667C28.1427 36.6667 26.5671 36.0241 25.2727 34.739C23.9782 33.4538 23.3316 31.8883 23.3327 30.0423C23.3327 28.1985 23.9793 26.6335 25.2727 25.3473C26.566 24.0611 28.1416 23.418 29.9993 23.418C31.856 23.418 33.4316 24.0611 34.726 25.3473C36.0205 26.6335 36.6671 28.1985 36.666 30.0423C36.666 31.8883 36.0193 33.4538 34.726 34.739C33.4305 36.0241 31.8549 36.6667 29.9993 36.6667ZM6.66602 34.4392V9.34124C6.66602 8.60152 6.92824 7.97055 7.45268 7.44833C7.97713 6.92721 8.61213 6.66666 9.35768 6.66666H30.641C31.3855 6.66666 32.0205 6.92721 32.546 7.44833C33.0705 7.96944 33.3327 8.60041 33.3327 9.34124V19.1867C33.0616 19.0873 32.7921 19.0023 32.5243 18.9316C32.2577 18.861 31.9716 18.8058 31.666 18.766V9.34289C31.666 9.08785 31.5593 8.85379 31.346 8.64071C31.1316 8.42873 30.8966 8.32274 30.641 8.32274H9.35768C9.10213 8.32274 8.86713 8.42873 8.65268 8.64071C8.43935 8.85379 8.33268 9.0873 8.33268 9.34124V31.5908H18.906C18.9816 32.0434 19.0793 32.4861 19.1993 32.9189C19.3205 33.3517 19.4888 33.7646 19.7043 34.1577L19.646 34.2156L17.756 32.8461L15.5127 34.4376L13.2693 32.8461L11.0243 34.4376L8.78102 32.8461L6.66602 34.4392ZM11.2827 26.9868H19.131C19.1932 26.6832 19.2699 26.3989 19.361 26.1339C19.4532 25.869 19.5605 25.6012 19.6827 25.3307H11.2827V26.9868ZM11.2827 20.745H23.466C24.0105 20.3178 24.5938 19.9617 25.216 19.6769C25.8382 19.3909 26.5032 19.1949 27.211 19.089H11.281L11.2827 20.745Z" fill="#1B998B"/>
</svg>