<svg xmlns="http://www.w3.org/2000/svg" width="24" height="20" viewBox="0 0 24 20" fill="none">
<path d="M12 6.5C11.2044 6.5 10.4413 6.81607 9.87868 7.37868C9.31607 7.94129 9 8.70435 9 9.5C9 10.2956 9.31607 11.0587 9.87868 11.6213C10.4413 12.1839 11.2044 12.5 12 12.5C12.7956 12.5 13.5587 12.1839 14.1213 11.6213C14.6839 11.0587 15 10.2956 15 9.5C15 8.70435 14.6839 7.94129 14.1213 7.37868C13.5587 6.81607 12.7956 6.5 12 6.5ZM12 14.5C10.6739 14.5 9.40215 13.9732 8.46447 13.0355C7.52678 12.0979 7 10.8261 7 9.5C7 8.17392 7.52678 6.90215 8.46447 5.96447C9.40215 5.02678 10.6739 4.5 12 4.5C13.3261 4.5 14.5979 5.02678 15.5355 5.96447C16.4732 6.90215 17 8.17392 17 9.5C17 10.8261 16.4732 12.0979 15.5355 13.0355C14.5979 13.9732 13.3261 14.5 12 14.5ZM12 2C7 2 2.73 5.11 1 9.5C2.73 13.89 7 17 12 17C17 17 21.27 13.89 23 9.5C21.27 5.11 17 2 12 2Z" fill="#AEAEB4"/>
</svg>