<svg xmlns="http://www.w3.org/2000/svg" width="20" height="17" viewBox="0 0 20 17" fill="none">
<path d="M18 0.333344H2C0.89 0.333344 0.00999999 1.22334 0.00999999 2.33334L0 14.3333C0 15.4433 0.89 16.3333 2 16.3333H18C19.11 16.3333 20 15.4433 20 14.3333V2.33334C20 1.22334 19.11 0.333344 18 0.333344ZM17 14.3333H3C2.45 14.3333 2 13.8833 2 13.3333V7.33334H18V13.3333C18 13.8833 17.55 14.3333 17 14.3333ZM18 5.33334H2V3.33334C2 2.78334 2.45 2.33334 3 2.33334H17C17.55 2.33334 18 2.78334 18 3.33334V5.33334Z" fill="#1B998B"/>
</svg>