<svg xmlns="http://www.w3.org/2000/svg" width="24" height="24" viewBox="0 0 24 24" fill="none">
<mask id="mask0_9_1704" style="mask-type:alpha" maskUnits="userSpaceOnUse" x="0" y="0" width="24" height="24">
<rect width="24" height="24" fill="#D9D9D9"/>
</mask>
<g mask="url(#mask0_9_1704)">
<path d="M4 8H20V6H4V8ZM2 6C2 5.45 2.19583 4.97917 2.5875 4.5875C2.97917 4.19583 3.45 4 4 4H20C20.55 4 21.0208 4.19583 21.4125 4.5875C21.8042 4.97917 22 5.45 22 6V12H4V18H8.1V20H4C3.45 20 2.97917 19.8042 2.5875 19.4125C2.19583 19.0208 2 18.55 2 18V6ZM14.95 22L10.7 17.75L12.1 16.35L14.95 19.15L20.6 13.5L22 14.95L14.95 22ZM4 6V18V13.5V16.325V6Z" fill="#1B998B"/>
</g>
</svg>