<svg xmlns="http://www.w3.org/2000/svg" width="24" height="24" viewBox="0 0 24 24" fill="none">
<g clip-path="url(#clip0_25_1273)">
<path d="M17.38 5.79L15.18 3.59C14.9 3.31 14.82 2.92 14.93 2.57C15.3 1.45 15.5 0.25 15.5 -1C15.5 -1.55 15.95 -2 16.5 -2H20C20.55 -2 21 -1.55 21 -1C21 8.39 13.39 16 4 16C3.45 16 3 15.55 3 15V11.51C3 10.96 3.45 10.51 4 10.51C5.24 10.51 6.45 10.31 7.57 9.94C7.92 9.82 8.32 9.91 8.59 10.18L10.79 12.38C13.62 10.93 15.94 8.62 17.38 5.79Z" fill="#535456"/>
</g>
<defs>
<clipPath id="clip0_25_1273">
<rect width="24" height="24" fill="white"/>
</clipPath>
</defs>
</svg>