<svg xmlns="http://www.w3.org/2000/svg" width="24" height="24" viewBox="0 0 24 24" fill="none">
<path d="M15.7822 9.92444L13.8267 7.96889C13.5778 7.72 13.5067 7.37333 13.6044 7.06222C13.9333 6.06667 14.1111 5 14.1111 3.88889C14.1111 3.4 14.5111 3 15 3H18.1111C18.6 3 19 3.4 19 3.88889C19 12.2356 12.2356 19 3.88889 19C3.4 19 3 18.6 3 18.1111V15.0089C3 14.52 3.4 14.12 3.88889 14.12C4.99111 14.12 6.06667 13.9422 7.06222 13.6133C7.37333 13.5067 7.72889 13.5867 7.96889 13.8267L9.92444 15.7822C12.44 14.4933 14.5022 12.44 15.7822 9.92444Z" fill="#AEAEB4"/>
</svg>