<svg xmlns="http://www.w3.org/2000/svg" width="30" height="30" viewBox="0 0 30 30" fill="none">
<path fill-rule="evenodd" clip-rule="evenodd" d="M20.3332 10.6666C20.3332 12.0811 19.7713 13.4376 18.7711 14.4378C17.7709 15.438 16.4143 15.9999 14.9998 15.9999C13.5853 15.9999 12.2288 15.438 11.2286 14.4378C10.2284 13.4376 9.6665 12.0811 9.6665 10.6666C9.6665 9.2521 10.2284 7.89554 11.2286 6.89535C12.2288 5.89515 13.5853 5.33325 14.9998 5.33325C16.4143 5.33325 17.7709 5.89515 18.7711 6.89535C19.7713 7.89554 20.3332 9.2521 20.3332 10.6666ZM17.6665 10.6666C17.6665 11.3738 17.3856 12.0521 16.8855 12.5522C16.3854 13.0523 15.7071 13.3333 14.9998 13.3333C14.2926 13.3333 13.6143 13.0523 13.1142 12.5522C12.6141 12.0521 12.3332 11.3738 12.3332 10.6666C12.3332 9.95934 12.6141 9.28106 13.1142 8.78097C13.6143 8.28087 14.2926 7.99992 14.9998 7.99992C15.7071 7.99992 16.3854 8.28087 16.8855 8.78097C17.3856 9.28106 17.6665 9.95934 17.6665 10.6666Z" fill="#333333"/>
<path fill-rule="evenodd" clip-rule="evenodd" d="M14.9999 0C6.89992 0 0.333252 6.56667 0.333252 14.6667C0.333252 22.7667 6.89992 29.3333 14.9999 29.3333C23.0999 29.3333 29.6666 22.7667 29.6666 14.6667C29.6666 6.56667 23.0999 0 14.9999 0ZM2.99992 14.6667C2.99992 17.4533 3.95059 20.0187 5.54392 22.056C6.66289 20.5865 8.10645 19.3957 9.76183 18.5764C11.4172 17.7572 13.2396 17.3317 15.0866 17.3333C16.9097 17.3316 18.7091 17.746 20.3478 18.545C21.9865 19.3441 23.4212 20.5066 24.5426 21.944C25.6978 20.4288 26.4757 18.6603 26.8118 16.7848C27.1479 14.9093 27.0325 12.9807 26.4752 11.1586C25.918 9.33658 24.9349 7.6734 23.6072 6.30672C22.2796 4.94004 20.6456 3.90915 18.8404 3.29935C17.0353 2.68954 15.1109 2.51836 13.2264 2.79996C11.3419 3.08157 9.55164 3.80786 8.00361 4.91874C6.45558 6.02962 5.19433 7.49316 4.32422 9.18826C3.45412 10.8834 3.00016 12.7613 2.99992 14.6667ZM14.9999 26.6667C12.2452 26.6708 9.57361 25.7231 7.43725 23.984C8.29716 22.753 9.4417 21.7479 10.7735 21.0542C12.1053 20.3606 13.585 19.9989 15.0866 20C16.5695 19.9988 18.0312 20.3514 19.3505 21.0286C20.6697 21.7057 21.8084 22.6878 22.6719 23.8933C20.519 25.6889 17.8034 26.6706 14.9999 26.6667Z" fill="#333333"/>
</svg>