<svg xmlns="http://www.w3.org/2000/svg" width="15" height="12" viewBox="0 0 15 12" fill="none">
<path d="M6.66667 12H8.33333C8.79167 12 9.16667 11.55 9.16667 11C9.16667 10.45 8.79167 10 8.33333 10H6.66667C6.20833 10 5.83333 10.45 5.83333 11C5.83333 11.55 6.20833 12 6.66667 12ZM0 1C0 1.55 0.375 2 0.833333 2H14.1667C14.625 2 15 1.55 15 1C15 0.45 14.625 0 14.1667 0H0.833333C0.375 0 0 0.45 0 1ZM3.33333 7H11.6667C12.125 7 12.5 6.55 12.5 6C12.5 5.45 12.125 5 11.6667 5H3.33333C2.875 5 2.5 5.45 2.5 6C2.5 6.55 2.875 7 3.33333 7Z" fill="#1B998B"/>
</svg>