<svg xmlns="http://www.w3.org/2000/svg" width="60" height="52" viewBox="0 0 60 52" fill="none">
  <g filter="url(#filter0_d_23_943)">
    <rect x="6.5" y="6.5" width="47" height="39" rx="7.5" stroke="white" shape-rendering="crispEdges"/>
    <path d="M28.3333 36H31.6667C32.5833 36 33.3333 35.25 33.3333 34.3333C33.3333 33.4167 32.5833 32.6667 31.6667 32.6667H28.3333C27.4167 32.6667 26.6667 33.4167 26.6667 34.3333C26.6667 35.25 27.4167 36 28.3333 36ZM15 17.6667C15 18.5833 15.75 19.3333 16.6667 19.3333H43.3333C44.25 19.3333 45 18.5833 45 17.6667C45 16.75 44.25 16 43.3333 16H16.6667C15.75 16 15 16.75 15 17.6667ZM21.6667 27.6667H38.3333C39.25 27.6667 40 26.9167 40 26C40 25.0833 39.25 24.3333 38.3333 24.3333H21.6667C20.75 24.3333 20 25.0833 20 26C20 26.9167 20.75 27.6667 21.6667 27.6667Z" fill="#1B998B"/>
  </g>
  <defs>
    <filter id="filter0_d_23_943" x="0" y="0" width="60" height="52" filterUnits="userSpaceOnUse" color-interpolation-filters="sRGB">
      <feFlood flood-opacity="0" result="BackgroundImageFix"/>
      <feColorMatrix in="SourceAlpha" type="matrix" values="0 0 0 0 0 0 0 0 0 0 0 0 0 0 0 0 0 0 127 0" result="hardAlpha"/>
      <feOffset/>
      <feGaussianBlur stdDeviation="3"/>
      <feComposite in2="hardAlpha" operator="out"/>
      <feColorMatrix type="matrix" values="0 0 0 0 0 0 0 0 0 0 0 0 0 0 0 0 0 0 0.12 0"/>
      <feBlend mode="normal" in2="BackgroundImageFix" result="effect1_dropShadow_23_943"/>
      <feBlend mode="normal" in="SourceGraphic" in2="effect1_dropShadow_23_943" result="shape"/>
    </filter>
  </defs>
</svg>