<svg xmlns="http://www.w3.org/2000/svg" width="24" height="22" viewBox="0 0 24 22" fill="none">
<path d="M6.636 17.3639C8.10845 18.8364 10.0459 19.7527 12.1183 19.9567C14.1906 20.1607 16.2696 19.6398 18.0009 18.4827C19.7322 17.3256 21.0087 15.604 21.6129 13.6112C22.217 11.6184 22.1115 9.47776 21.3142 7.55408C20.5169 5.63039 19.0772 4.0427 17.2404 3.06158C15.4037 2.08045 13.2835 1.7666 11.2413 2.17352C9.19909 2.58043 7.36116 3.68293 6.04073 5.29312C4.72031 6.90332 3.99909 8.92157 4 11.0039V12.9999" stroke="#535456" stroke-width="2.2" stroke-linecap="round" stroke-linejoin="round"/>
<path d="M2 11L4 13L6 11M12 7V12H17" stroke="#535456" stroke-width="2.2" stroke-linecap="round" stroke-linejoin="round"/>
</svg>