<svg xmlns="http://www.w3.org/2000/svg" width="24" height="22" viewBox="0 0 24 22" fill="none">
<path d="M6.636 17.364C8.10845 18.8365 10.0459 19.7528 12.1183 19.9568C14.1906 20.1608 16.2696 19.6399 18.0009 18.4828C19.7322 17.3257 21.0087 15.6041 21.6129 13.6113C22.217 11.6185 22.1115 9.47785 21.3142 7.55417C20.5169 5.63048 19.0772 4.04279 17.2404 3.06167C15.4037 2.08054 13.2835 1.7667 11.2413 2.17361C9.19909 2.58052 7.36116 3.68302 6.04073 5.29321C4.72031 6.90341 3.99909 8.92166 4 11.004V13" stroke="#1B998B" stroke-width="2.2" stroke-linecap="round" stroke-linejoin="round"/>
<path d="M2 11L4 13L6 11M12 7.00003V12H17" stroke="#1B998B" stroke-width="2.2" stroke-linecap="round" stroke-linejoin="round"/>
</svg>